<?xml version="1.0" encoding="utf-8"?>
<!-- Generator: Adobe Illustrator 26.5.1, SVG Export Plug-In . SVG Version: 6.00 Build 0)  -->
<svg version="1.1" id="Layer_1" xmlns="http://www.w3.org/2000/svg" xmlns:xlink="http://www.w3.org/1999/xlink" x="0px" y="0px"
	 viewBox="0 0 512 512" style="enable-background:new 0 0 512 512;" xml:space="preserve">
<style type="text/css">
	.st0{fill:none;stroke:#000000;stroke-width:0.5;stroke-miterlimit:10;}
</style>
<path d="M17.72,17.72v476.56h476.56V17.72H17.72z M54.84,18.22h17.81v475.56H54.84V18.22z M54.34,493.78H36.53V18.22h17.81V493.78z
	 M73.15,18.22h17.81v475.56H73.15V18.22z M91.46,18.22h17.81v475.56H91.46V18.22z M109.77,18.22h17.81v475.56h-17.81V18.22z
	 M128.08,18.22h17.81v475.56h-17.81V18.22z M146.39,18.22h17.81v475.56h-17.81V18.22z M164.7,18.22h17.81v475.56H164.7V18.22z
	 M183.01,18.22h17.81v475.56h-17.81V18.22z M201.32,18.22h17.81v475.56h-17.81V18.22z M219.63,18.22h17.81v475.56h-17.81V18.22z
	 M237.94,18.22h17.81v475.56h-17.81V18.22z M256.25,18.22h17.81v475.56h-17.81V18.22z M274.56,18.22h17.81v475.56h-17.81V18.22z
	 M292.87,18.22h17.81v475.56h-17.81V18.22z M311.18,18.22h17.81v475.56h-17.81V18.22z M329.49,18.22h17.81v475.56h-17.81V18.22z
	 M347.8,18.22h17.81v475.56H347.8V18.22z M366.11,18.22h17.81v475.56h-17.81V18.22z M384.42,18.22h17.81v475.56h-17.81V18.22z
	 M402.73,18.22h17.81v475.56h-17.81V18.22z M421.04,18.22h17.81v475.56h-17.81V18.22z M439.35,18.22h17.81v475.56h-17.81V18.22z
	 M457.66,18.22h17.81v475.56h-17.81V18.22z M18.22,18.22h17.81v475.56H18.22V18.22z M493.78,493.78h-17.81V18.22h17.81V493.78z"/>
</svg>
