<?xml version="1.0" encoding="utf-8"?>
<!-- Generator: Adobe Illustrator 26.0.1, SVG Export Plug-In . SVG Version: 6.00 Build 0)  -->
<svg version="1.1" id="Layer_1" xmlns="http://www.w3.org/2000/svg" xmlns:xlink="http://www.w3.org/1999/xlink" x="0px" y="0px"
	 viewBox="0 0 198 65" style="enable-background:new 0 0 198 65;" xml:space="preserve">
<style type="text/css">
	.st0{fill:#D5BEF4;}
	.st1{fill:#FFFFFF;}
	.st2{font-family:'ArticulatCF-DemiBoldOblique';}
	.st3{font-size:18px;}
</style>
<g id="Layer_2_00000008118371808125215460000001328712763845949327_">
	<g id="Layer_1-2">
		<polyline class="st0" points="29,0 169,0 198,65 0,65 		"/>
		<text transform="matrix(1 0 0 1 38.15 31.34)" class="st1 st2 st3">A</text>
		<text transform="matrix(1 0 0 1 51.09 31.34)" class="st1 st2 st3">NI</text>
		<text transform="matrix(1 0 0 1 67.87 31.34)" class="st1 st2 st3">M</text>
		<text transform="matrix(1 0 0 1 82.86 31.34)" class="st1 st2 st3">A</text>
		<text transform="matrix(1 0 0 1 94 31.34)" class="st1 st2 st3">TION &amp; </text>
		<text transform="matrix(1 0 0 1 38.15 52.94)" class="st1 st2 st3">I</text>
		<text transform="matrix(1 0 0 1 42.52 52.94)" class="st1 st2 st3">L</text>
		<text transform="matrix(1 0 0 1 52.33 52.94)" class="st1 st2 st3">L</text>
		<text transform="matrix(1 0 0 1 61.96 52.94)" class="st1 st2 st3">U</text>
		<text transform="matrix(1 0 0 1 74.08 52.94)" class="st1 st2 st3">S</text>
		<text transform="matrix(1 0 0 1 85.08 52.94)" class="st1 st2 st3">T</text>
		<text transform="matrix(1 0 0 1 95.79 52.94)" class="st1 st2 st3">R</text>
		<text transform="matrix(1 0 0 1 106.96 52.94)" class="st1 st2 st3">A</text>
		<text transform="matrix(1 0 0 1 118.11 52.94)" class="st1 st2 st3">TION</text>
	</g>
</g>
</svg>
